<svg width="116" height="139" viewBox="0 0 116 139" fill="none" xmlns="http://www.w3.org/2000/svg">
<path d="M54.0127 0.145294C59.3847 -0.397571 73.056 0.287524 85.0264 7.3494C99.4886 15.8815 106.028 25.6094 110.67 35.1873L111.113 36.1131L111.12 36.1277L111.126 36.1424C119.594 57.3881 114.181 80.594 99.083 97.6658C96.6246 100.934 93.0097 103.91 89.3311 106.308C85.6537 108.706 81.8801 110.549 79.0732 111.548C77.6568 112.288 75.4526 112.746 73.5225 113.179C72.5275 113.403 71.5943 113.622 70.8242 113.87C70.034 114.125 69.5006 114.386 69.2354 114.651C68.8503 115.036 68.7815 115.644 68.9619 116.393C69.1355 117.113 69.5131 117.829 69.8135 118.271L76.5684 125.554L88.6973 137.675L89.9404 138.917L88.2285 138.514C86.1836 138.034 84.6649 137.486 75.751 134.745L75.7344 134.74L75.7188 134.734C74.9712 134.447 70.6201 132.417 65.5752 129.667L65.5586 129.658L65.543 129.647C62.7989 127.87 61.1984 126.9 59.7939 126.041C58.3859 125.179 57.1727 124.429 55.2109 123.097L55.1992 123.09L55.1895 123.082C36.7615 109.095 24.8002 94.5465 12.2402 73.7947C12.1787 73.9162 12.1133 74.0643 12.0518 74.243C11.7751 75.0464 11.5502 76.4797 11.8867 78.9012C12.3198 82.0175 13.6953 85.0142 15.3467 87.7918C17.0009 90.5741 18.8867 93.0696 20.3652 95.2693L28.9355 107.045L28.208 107.72C18.2707 99.3176 9.95294 91.0622 3.98145 79.1951C0.398891 72.0752 0 63.2701 0 56.8455C7.48427e-05 51.6449 1.41057 44.8702 2.31543 42.0369C2.53768 41.341 2.81401 40.388 3.10156 39.6453C3.24462 39.2759 3.40485 38.9198 3.58203 38.658C3.66967 38.5285 3.78183 38.3903 3.9248 38.2898C4.05736 38.1967 4.24269 38.1199 4.45605 38.1443L4.54883 38.1619L5.25684 38.3426C20.0182 42.2198 32.5892 51.4526 43.7188 61.3416H51.2275C53.9652 61.4605 60.4107 61.9143 64.1738 62.782C66.0756 63.2206 68.9674 64.306 71.7822 65.4695C74.6074 66.6373 77.3922 67.899 79.0947 68.7049L78.8311 69.6541C78.2679 69.5979 76.4255 69.5143 73.7295 69.656C72.207 69.7363 70.294 70.8014 68.5293 72.3836C66.7793 73.9526 65.2683 75.9464 64.5225 77.7351C63.5684 80.0235 63.3661 81.7619 63.5967 83.3875C63.8305 85.0355 64.5124 86.6044 65.4092 88.576C66.437 90.8357 68.1933 92.1422 70.2871 92.9558C72.399 93.7764 74.8234 94.0848 77.1523 94.3533C81.1312 94.8121 84.5074 93.3822 87.3604 90.7537C90.2251 88.1142 92.5512 84.2735 94.3779 79.9617C98.032 71.3366 99.627 60.9774 99.627 55.0613C99.6269 50.1786 98.0577 44.0187 93.2637 35.5017C88.5076 27.0527 79.9102 22.3381 76.4287 19.5916C75.1333 18.5697 73.3606 17.7436 71.6455 17.1267C70.1678 16.5953 68.7598 16.228 67.7881 16.0262L64.7139 25.2449C64.5596 25.7075 64.4496 26.5705 64.3994 27.7283C64.35 28.8693 64.3603 30.2484 64.4268 31.7097C64.5599 34.6376 64.9152 37.8617 65.4414 40.1404C65.6941 41.2341 66.2932 42.5809 67.0449 44.0086C67.7933 45.4298 68.6736 46.8953 69.4678 48.2254C70.2538 49.5419 70.9692 50.7474 71.3604 51.6131C71.5474 52.0271 71.7016 52.4479 71.7012 52.7888C71.7009 52.9698 71.6564 53.2191 71.4521 53.4051C71.2482 53.5906 70.9933 53.614 70.8008 53.5965C70.4983 53.5689 70.0059 53.4457 69.4092 53.2674C68.7971 53.0844 68.0316 52.8304 67.1611 52.5222C65.4191 51.9055 63.2402 51.0654 60.9902 50.1258C56.5144 48.2565 51.6729 45.9572 49.4678 44.2127C45.1091 40.7643 43.1009 37.3004 40.9707 34.1072C40.0582 32.7392 39.6233 31.1708 39.4443 29.7849C39.2694 28.4301 39.3355 27.217 39.458 26.4773C39.4588 25.7793 39.4839 25.2269 39.5098 24.7986C39.0127 25.2085 38.1837 25.5645 37.2148 25.8748C36.18 26.2061 34.9096 26.5114 33.5381 26.781C30.7937 27.3205 27.6033 27.7253 24.9951 27.9051C22.804 28.056 20.2594 27.3037 18.0107 26.3445C15.7496 25.3799 13.7204 24.1762 12.5352 23.3562L12.1748 23.1072L12.374 22.7176H12.375L12.3828 22.7019C12.3879 22.6922 12.395 22.6778 12.4043 22.6599C12.4232 22.6237 12.4504 22.5716 12.4844 22.5076C12.5524 22.3795 12.6484 22.2027 12.7578 22.0086C12.9706 21.631 13.2564 21.1514 13.502 20.8474C15.0375 18.9476 17.648 16.6288 20.2588 14.5183C22.8776 12.4014 25.5301 10.4671 27.1758 9.33084L27.1963 9.31717L27.2178 9.30545C29.3707 8.11018 34.8924 5.25481 39.7793 3.38748C44.6936 1.50976 51.313 0.445532 54.0078 0.146271L54.0127 0.145294ZM28.7373 57.3826C26.3894 57.5062 27.4441 60.5491 27.46 60.5945C27.46 63.2733 34.2503 69.4746 37.7705 70.2029C42.2836 71.1365 42.899 70.4529 41.3428 67.6521C39.7866 64.8514 31.6944 57.2276 28.7373 57.3826Z" fill="#048AFF"/>
</svg>
