<svg width="504" height="139" viewBox="0 0 504 139" fill="none" xmlns="http://www.w3.org/2000/svg">
<path d="M54.0127 0.145294C59.3847 -0.397571 73.056 0.287524 85.0264 7.3494C99.4886 15.8815 106.028 25.6094 110.67 35.1873L111.113 36.1131L111.12 36.1277L111.126 36.1424C119.594 57.3881 114.181 80.594 99.083 97.6658C96.6246 100.934 93.0097 103.91 89.3311 106.308C85.6537 108.706 81.8801 110.549 79.0732 111.548C77.6568 112.288 75.4526 112.746 73.5225 113.179C72.5275 113.403 71.5943 113.622 70.8242 113.87C70.034 114.125 69.5006 114.386 69.2354 114.651C68.8503 115.036 68.7815 115.644 68.9619 116.393C69.1355 117.113 69.5131 117.829 69.8135 118.271L76.5684 125.554L88.6973 137.675L89.9404 138.917L88.2285 138.514C86.1836 138.034 84.6649 137.486 75.751 134.745L75.7344 134.74L75.7188 134.734C74.9712 134.447 70.6201 132.417 65.5752 129.667L65.5586 129.658L65.543 129.647C62.7989 127.87 61.1984 126.9 59.7939 126.041C58.3859 125.179 57.1727 124.429 55.2109 123.097L55.1992 123.09L55.1895 123.082C36.7615 109.095 24.8002 94.5465 12.2402 73.7947C12.1787 73.9162 12.1133 74.0643 12.0518 74.243C11.7751 75.0464 11.5502 76.4797 11.8867 78.9012C12.3198 82.0175 13.6953 85.0142 15.3467 87.7918C17.0009 90.5741 18.8867 93.0696 20.3652 95.2693L28.9355 107.045L28.208 107.72C18.2707 99.3176 9.95294 91.0622 3.98145 79.1951C0.398891 72.0752 0 63.2701 0 56.8455C7.48427e-05 51.6449 1.41057 44.8702 2.31543 42.0369C2.53768 41.341 2.81401 40.388 3.10156 39.6453C3.24462 39.2759 3.40485 38.9198 3.58203 38.658C3.66967 38.5285 3.78183 38.3903 3.9248 38.2898C4.05736 38.1967 4.24269 38.1199 4.45605 38.1443L4.54883 38.1619L5.25684 38.3426C20.0182 42.2198 32.5892 51.4526 43.7188 61.3416H51.2275C53.9652 61.4605 60.4107 61.9143 64.1738 62.782C66.0756 63.2206 68.9674 64.306 71.7822 65.4695C74.6074 66.6373 77.3922 67.899 79.0947 68.7049L78.8311 69.6541C78.2679 69.5979 76.4255 69.5143 73.7295 69.656C72.207 69.7363 70.294 70.8014 68.5293 72.3836C66.7793 73.9526 65.2683 75.9464 64.5225 77.7351C63.5684 80.0235 63.3661 81.7619 63.5967 83.3875C63.8305 85.0355 64.5124 86.6044 65.4092 88.576C66.437 90.8357 68.1933 92.1422 70.2871 92.9558C72.399 93.7764 74.8234 94.0848 77.1523 94.3533C81.1312 94.8121 84.5074 93.3822 87.3604 90.7537C90.2251 88.1142 92.5512 84.2735 94.3779 79.9617C98.032 71.3366 99.627 60.9774 99.627 55.0613C99.6269 50.1786 98.0577 44.0187 93.2637 35.5017C88.5076 27.0527 79.9102 22.3381 76.4287 19.5916C75.1333 18.5697 73.3606 17.7436 71.6455 17.1267C70.1678 16.5953 68.7598 16.228 67.7881 16.0262L64.7139 25.2449C64.5596 25.7075 64.4496 26.5705 64.3994 27.7283C64.35 28.8693 64.3603 30.2484 64.4268 31.7097C64.5599 34.6376 64.9152 37.8617 65.4414 40.1404C65.6941 41.2341 66.2932 42.5809 67.0449 44.0086C67.7933 45.4298 68.6736 46.8953 69.4678 48.2254C70.2538 49.5419 70.9692 50.7474 71.3604 51.6131C71.5474 52.0271 71.7016 52.4479 71.7012 52.7888C71.7009 52.9698 71.6564 53.2191 71.4521 53.4051C71.2482 53.5906 70.9933 53.614 70.8008 53.5965C70.4983 53.5689 70.0059 53.4457 69.4092 53.2674C68.7971 53.0844 68.0316 52.8304 67.1611 52.5222C65.4191 51.9055 63.2402 51.0654 60.9902 50.1258C56.5144 48.2565 51.6729 45.9572 49.4678 44.2127C45.1091 40.7643 43.1009 37.3004 40.9707 34.1072C40.0582 32.7392 39.6233 31.1708 39.4443 29.7849C39.2694 28.4301 39.3355 27.217 39.458 26.4773C39.4588 25.7793 39.4839 25.2269 39.5098 24.7986C39.0127 25.2085 38.1837 25.5645 37.2148 25.8748C36.18 26.2061 34.9096 26.5114 33.5381 26.781C30.7937 27.3205 27.6033 27.7253 24.9951 27.9051C22.804 28.056 20.2594 27.3037 18.0107 26.3445C15.7496 25.3799 13.7204 24.1762 12.5352 23.3562L12.1748 23.1072L12.374 22.7176H12.375L12.3828 22.7019C12.3879 22.6922 12.395 22.6778 12.4043 22.6599C12.4232 22.6237 12.4504 22.5716 12.4844 22.5076C12.5524 22.3795 12.6484 22.2027 12.7578 22.0086C12.9706 21.631 13.2564 21.1514 13.502 20.8474C15.0375 18.9476 17.648 16.6288 20.2588 14.5183C22.8776 12.4014 25.5301 10.4671 27.1758 9.33084L27.1963 9.31717L27.2178 9.30545C29.3707 8.11018 34.8924 5.25481 39.7793 3.38748C44.6936 1.50976 51.313 0.445532 54.0078 0.146271L54.0127 0.145294ZM28.7373 57.3826C26.3894 57.5062 27.4441 60.5491 27.46 60.5945C27.46 63.2733 34.2503 69.4746 37.7705 70.2029C42.2836 71.1365 42.899 70.4529 41.3428 67.6521C39.7866 64.8514 31.6944 57.2276 28.7373 57.3826Z" fill="#048AFF"/>
<path d="M174.5 112C173.5 108.333 174.5 35 174.5 35C178.167 34.6667 186.8 35 192 35C197.2 35 199.5 39.6667 200 42C200 42 200 107.5 199 112C198 115.5 193.711 122.5 186.5 122.5C179.5 122.5 175.5 115.667 174.5 112Z" fill="#048AFF"/>
<path d="M193.5 32.5C196.3 32.5 199 35.5 200 37C199.833 34.6667 199.4 29.5 199 27.5C198.5 25 196 20 192.5 15.5C189.7 11.9 185 10.5 180 10C167.5 9.5 145 9.50002 142 10.5C139 11.5 133.5 14.5 133.5 22C133.5 28 139.244 31.874 143 32.5C146 33 190.7 32.5 193.5 32.5Z" fill="#048AFF"/>
<path d="M230.5 9.5C225.5 8.5 189 9.5 189 9.5C190.833 11 195.3 15 198.5 19C201.7 23 202.5 30.6667 202.5 34H232C238 34 241 24.5 240.5 19.5C240.1 15.5 235.5 10.5 230.5 9.5Z" fill="#048AFF"/>
<path d="M239.35 49.0236C244.85 47.5236 254.85 47.5236 259.85 50.0236C264.819 53.9991 270.849 61.0236 271.35 66.5236C271.85 72.0236 272.35 77.5236 269.85 78.5236C267.849 79.3236 251.016 79.5236 242.85 79.5236H232.85C233.016 82.6902 238.849 89.7235 242.85 90.5236C250.35 92.0235 257.547 88.9972 259.85 88.0236C267 85 273 88.0239 271.35 94.5001C270.846 96.4767 261.5 102 254.35 102.524C249.65 103.608 237.849 103.524 230.85 98.0236C221.381 90.5838 219.659 80.0236 221.85 68.5236C226.35 54.0237 233.85 50.5236 239.35 49.0236ZM247.5 58.5001C239.1 58.5002 235.667 66.1668 235 70.0001C243.833 70.3334 261.499 70.7 261.5 69.5001C261.5 68.0001 258 58.5001 247.5 58.5001Z" fill="#048AFF"/>
<path d="M471.349 49.0238C476.849 47.5238 486.849 47.5238 491.849 50.0238C496.819 53.9993 502.849 61.0238 503.349 66.5238C503.849 72.0238 504.349 77.5238 501.849 78.5238C499.849 79.3238 483.016 79.5238 474.849 79.5238H464.849C465.016 82.6905 470.849 89.7237 474.849 90.5238C482.349 92.0237 489.547 88.9975 491.849 88.0238C499 85.0002 505 88.0241 503.349 94.5003C502.845 96.4769 493.5 102 486.349 102.524C481.65 103.608 469.849 103.524 462.849 98.0238C453.381 90.584 451.659 80.0238 453.849 68.5238C458.349 54.0239 465.849 50.5238 471.349 49.0238ZM479.5 58.5003C471.1 58.5004 467.666 66.167 467 70.0003C475.833 70.3337 493.499 70.7002 493.5 69.5003C493.5 68.0003 490 58.5003 479.5 58.5003Z" fill="#048AFF"/>
<path d="M281 99.0085V57.1303C281 56.4656 281.21 50.4497 282.052 49.652C284.155 47.6579 290.464 47.6578 293.093 48.6549C295.133 49.4287 294.957 55.6768 294.776 57.9166C295.129 56.8537 296.449 55.9424 299.929 52.6434C304.135 48.655 307.85 49.5195 312.057 50.018C318.617 51.5315 315.703 61.1171 312.548 61.1171C310.445 61.1171 300.446 61.438 297.3 68.597C294.671 74.5796 296.749 83.6165 296.749 88.8649C296.749 95.2448 300.576 104 290.189 104C281 104 281.175 100.504 281 99.0085Z" fill="#048AFF"/>
<path d="M344.637 48C352.036 48.0002 356.935 52.7609 361.312 58.1201C362.476 59.5462 363.22 61.4995 363.614 63.6982C364.008 65.9021 364.058 68.3862 363.806 70.9062C363.303 75.9355 361.593 81.19 358.941 84.7227C353.629 91.7974 347.061 92.1836 342.253 92.1836C338.764 92.1835 335.015 91.0439 332.488 89.4824C332.551 90.0016 332.658 90.5352 332.789 91.1025C333 92.0131 333.283 93.0497 333.512 94.1748C333.978 96.4677 334.252 99.2696 333.49 103.098C333.205 104.524 332.749 105.574 332.149 106.333C331.543 107.099 330.812 107.543 330.032 107.789C329.262 108.031 328.452 108.078 327.686 108.07C327.302 108.066 326.918 108.049 326.553 108.032C326.184 108.016 325.834 108 325.499 108C322.899 108 321.581 107.445 320.869 106.664C320.518 106.279 320.349 105.873 320.236 105.554C320.172 105.375 320.144 105.278 320.099 105.159C320.058 105.053 320.031 105.011 320.019 104.996L319.904 104.857V51.1748C319.904 50.6342 320.259 50.0145 321.018 49.5537C321.779 49.0915 322.973 48.7647 324.774 48.7646C328.366 48.7647 330.236 50.0725 330.759 50.9102L330.835 51.0322V53.0576L331.557 52.3623C333.281 50.3073 337.416 48.0001 344.637 48ZM342.5 60C336.701 60 332 64.4772 332 70C332 75.5228 336.701 80 342.5 80C348.299 79.9998 353 75.5228 353 70C353 64.4772 348.299 60.0002 342.5 60Z" fill="#048AFF"/>
<path d="M370.904 103C369.57 102 370.904 53 370.904 53C370.904 52 370.704 49.9 371.904 49.5C373.404 49 382.904 48.5 383.404 50.5C383.904 52.5 384.904 56 385.904 55C386.904 54 392.404 48 400.904 48.5C407.704 48.9 412.07 54.6667 413.404 57.5C413.07 58 413.004 58.3 415.404 55.5C418.404 52 423.404 49 433.904 49.5C442.304 49.9 447.07 60.6667 448.404 66C449.737 71.3333 449.404 100.75 448.404 102C447.404 103.25 445.404 104.5 441.404 104.5C437.404 104.5 435.404 102.833 434.904 102C433.904 97 435.663 71.7768 434.904 69.5C433.904 66.5 430.904 62.5 425.404 62.5C421.004 62.5 417.404 65.5 416.404 68.5C415.404 71.5 417.904 102 416.404 103C414.904 104 413.904 104.5 409.904 104.5C405.904 104.5 404.404 104 403.404 103C402.904 100 403.889 70.4403 403.404 68.5C402.904 66.5 400.404 63 393.904 62.5C388.704 62.1 385.737 66.3333 384.904 68.5C384.07 70.6667 387.404 100.5 384.904 103C383.404 104.5 382.804 104.5 378.404 104.5C374.004 104.5 372.237 104 370.904 103Z" fill="#048AFF"/>
</svg>
