<svg width="250" height="302" viewBox="0 0 250 302" fill="none" xmlns="http://www.w3.org/2000/svg">
<path d="M117.311 0.308632C128.942 -0.867432 158.636 0.619433 184.616 15.9551C216.043 34.506 230.242 55.6392 240.333 76.4737L241.297 78.4893L241.304 78.5039L241.31 78.5176C259.694 124.668 247.953 175.102 215.132 212.225C209.825 219.293 201.988 225.75 193.983 230.972C185.984 236.19 177.784 240.196 171.707 242.356C168.708 243.943 163.967 244.929 159.688 245.891C157.519 246.378 155.458 246.86 153.748 247.412C152.018 247.97 150.734 248.575 150.047 249.262C148.986 250.322 148.882 251.914 149.293 253.62C149.696 255.295 150.568 256.937 151.255 257.943L166.018 273.87L192.506 300.356L193.749 301.599L192.038 301.196C187.602 300.153 184.33 298.971 164.853 292.978L164.837 292.973L164.82 292.967C163.23 292.355 153.764 287.941 142.761 281.939L142.744 281.93L142.728 281.919C136.734 278.035 133.238 275.913 130.174 274.037C127.105 272.159 124.466 270.526 120.196 267.627L120.186 267.62L120.175 267.611C79.7996 236.951 53.6758 205.057 26.1191 159.364C26.1107 159.375 26.1014 159.386 26.0928 159.397C25.8259 159.751 25.4664 160.346 25.1455 161.277C24.5033 163.142 24.0136 166.37 24.7568 171.721C25.7175 178.636 28.764 185.257 32.3848 191.35C36.0083 197.447 40.1625 202.95 43.3643 207.718L62.0615 233.424L61.334 234.1C39.6734 215.774 21.5982 197.814 8.62305 172.015C0.875433 156.609 1.68276e-05 137.517 0 123.494C3.89944e-05 112.215 3.06361 97.4877 5.02344 91.3477C5.51653 89.8029 6.10768 87.7605 6.72656 86.1612C7.03532 85.3633 7.36503 84.6363 7.71289 84.1221C7.88583 83.8665 8.08419 83.6321 8.3125 83.4717C8.51974 83.3262 8.77887 83.2253 9.06641 83.2588L9.19141 83.2813L10.7285 83.6758C42.8702 92.1229 70.2634 112.273 94.5674 133.899H111.15C117.123 134.159 131.136 135.147 139.288 137.028C143.384 137.974 149.652 140.326 155.795 142.866C161.948 145.411 168.014 148.16 171.721 149.916L171.457 150.865C170.191 150.739 166.14 150.557 160.236 150.867C156.71 151.053 152.41 153.49 148.529 156.972C144.663 160.44 141.306 164.861 139.637 168.866C137.522 173.941 137.057 177.842 137.577 181.515C138.101 185.21 139.626 188.711 141.578 193.005C143.901 198.114 147.872 201.056 152.543 202.872C157.232 204.695 162.597 205.372 167.669 205.957C176.553 206.982 184.083 203.778 190.407 197.948C196.744 192.107 201.859 183.638 205.861 174.185C213.867 155.277 217.362 132.585 217.362 119.599C217.362 108.806 213.894 95.2591 203.403 76.6114C192.95 58.0308 174.013 47.6176 166.522 41.7051C163.623 39.4168 159.689 37.588 155.922 36.2325C152.402 34.9659 149.061 34.1253 146.912 33.7071L140.039 54.3233C139.674 55.419 139.432 57.3774 139.322 59.9073C139.214 62.4203 139.237 65.4487 139.383 68.6514C139.674 75.0617 140.451 82.1367 141.61 87.1592C142.179 89.6251 143.518 92.6207 145.163 95.7471C146.805 98.8669 148.732 102.081 150.463 104.981C152.185 107.867 153.725 110.464 154.562 112.315C154.971 113.223 155.253 114.035 155.252 114.638C155.251 114.949 155.175 115.297 154.902 115.545C154.63 115.793 154.27 115.843 153.933 115.813C153.34 115.759 152.321 115.506 151.013 115.115C149.69 114.72 148.03 114.169 146.136 113.498C142.346 112.156 137.602 110.326 132.701 108.278C122.924 104.193 112.439 99.2028 107.702 95.4532C98.2793 87.9943 93.9504 80.5199 89.2881 73.5274C87.3629 70.6399 86.4356 67.3136 86.0527 64.3467C85.6734 61.4073 85.8239 58.7875 86.0879 57.2383C86.089 55.2991 86.167 53.8787 86.2402 52.878C86.2625 52.5732 86.2846 52.304 86.3037 52.0743C86.0556 52.3303 85.7443 52.6412 85.3613 52.9815C84.3988 53.8368 82.6277 54.6168 80.4229 55.3233C78.1944 56.0373 75.4465 56.6989 72.4658 57.2852C66.5038 58.4579 59.569 59.3367 53.9014 59.7276C49.2626 60.0474 43.8173 58.4513 38.9365 56.3682C34.043 54.2797 29.6505 51.6722 27.0938 49.9024L26.7334 49.6534L26.9326 49.2647V49.2637H26.9336V49.2618C26.9344 49.2604 26.9362 49.2585 26.9375 49.2559C26.9403 49.2505 26.9439 49.2418 26.9492 49.2315C26.9599 49.2107 26.9759 49.1804 26.9961 49.1416C27.0366 49.0638 27.0956 48.9516 27.1689 48.8135C27.3157 48.5371 27.5212 48.1555 27.7568 47.7373C28.2223 46.9111 28.8249 45.9028 29.3262 45.2823C32.6341 41.1873 38.2865 36.1611 43.9795 31.5567C49.6808 26.9455 55.4563 22.7318 59.0361 20.2588L59.0557 20.2442L59.0771 20.2325C63.762 17.6301 75.7829 11.4121 86.4092 7.34965C97.0625 3.27688 111.446 0.960648 117.306 0.309608L117.311 0.308632ZM62.1055 124.665C56.9671 124.936 59.3008 131.619 59.3203 131.675C59.3203 137.521 74.1311 151.054 81.8096 152.644C91.6538 154.681 92.996 153.189 89.6016 147.077C86.207 140.965 68.5556 124.326 62.1055 124.665Z" fill="#048AFF"/>
</svg>
